<?xml version="1.0" encoding="UTF-8" standalone="no"?>
<!DOCTYPE svg PUBLIC "-//W3C//DTD SVG 1.1//EN" "http://www.w3.org/Graphics/SVG/1.1/DTD/svg11.dtd">
<svg xmlns="http://www.w3.org/2000/svg" version="1.1" viewBox="0.00 0.00 1024.00 260.00">
<g stroke-width="2.00" fill="none" stroke-linecap="butt">
<path stroke="#b5b285" vector-effect="non-scaling-stroke" d="
  M 256.09 143.03
  L 249.21 136.72"
/>
<path stroke="#54a0dd" vector-effect="non-scaling-stroke" d="
  M 197.67 198.81
  L 188.44 193.90"
/>
</g>
<path fill="#e6bc4f" d="
  M 256.09 143.03
  L 249.21 136.72
  Q 265.18 118.35 281.43 100.18
  C 292.00 88.37 304.10 76.01 314.62 66.38
  C 332.34 50.16 353.75 36.59 376.62 28.50
  Q 402.52 19.34 430.76 17.68
  Q 430.77 17.68 434.39 17.88
  Q 438.85 18.12 439.72 22.49
  A 1.87 1.85 -40.7 0 1 439.64 23.49
  Q 438.38 26.91 434.52 27.32
  Q 425.44 28.30 418.26 29.28
  C 390.35 33.10 364.66 42.38 341.55 58.31
  Q 325.30 69.50 309.43 85.43
  Q 286.06 108.88 260.05 138.73
  C 259.05 139.87 257.30 141.48 256.09 143.03
  Z"
/>
<path fill="#d0d8e8" d="
  M 670.83 89.43
  A 33.63 33.63 0.0 0 1 637.20 123.06
  A 33.63 33.63 0.0 0 1 603.57 89.43
  A 33.63 33.63 0.0 0 1 637.20 55.80
  A 33.63 33.63 0.0 0 1 670.83 89.43
  Z
  M 633.9866 63.1572
  A 26.45 25.69 -97.0 0 0 611.7115 92.5408
  A 26.45 25.69 -97.0 0 0 640.4334 115.6628
  A 26.45 25.69 -97.0 0 0 662.7085 86.2792
  A 26.45 25.69 -97.0 0 0 633.9866 63.1572
  Z"
/>
<path fill="#d0d8e8" d="
  M 867.15 65.26
  Q 867.22 67.27 864.49 68.53
  Q 863.62 68.94 861.47 68.45
  Q 860.31 68.19 858.93 66.98
  Q 853.62 62.30 847.51 63.19
  C 840.69 64.19 835.10 69.36 838.01 76.57
  A 3.83 3.70 10.7 0 0 839.02 78.00
  Q 845.08 83.39 849.80 84.78
  Q 859.17 87.54 865.86 93.38
  Q 869.79 96.80 869.96 102.72
  C 870.15 109.90 866.84 115.77 860.61 119.44
  C 850.46 125.41 836.27 122.66 828.51 113.62
  A 2.69 2.69 0.0 0 1 828.65 109.97
  L 830.90 107.72
  A 2.59 2.59 0.0 0 1 834.47 107.63
  Q 836.60 109.55 837.97 110.89
  C 842.44 115.24 848.37 116.35 854.28 114.50
  C 856.79 113.71 858.47 112.98 859.74 110.61
  C 862.85 104.81 862.18 97.36 855.50 94.73
  Q 850.83 92.90 845.22 90.79
  C 839.27 88.56 831.51 84.10 829.88 77.85
  C 827.23 67.66 832.72 59.47 842.53 56.74
  Q 850.59 54.49 858.60 58.38
  C 861.26 59.67 867.04 62.33 867.15 65.26
  Z"
/>
<path fill="#d0d8e8" d="
  M 689.45 119.35
  L 689.45 59.53
  A 1.06 1.04 -7.1 0 1 690.25 58.52
  Q 693.84 57.66 695.25 57.68
  Q 702.13 57.73 722.08 57.49
  A 4.15 4.14 86.2 0 1 726.25 61.15
  L 726.31 61.55
  A 3.04 3.03 -4.1 0 1 723.30 65.01
  L 699.71 65.01
  A 2.47 2.47 0.0 0 0 697.31 66.89
  Q 696.87 68.68 696.84 70.75
  Q 696.79 74.62 697.45 84.66
  A 1.16 1.14 18.6 0 0 697.86 85.47
  Q 699.12 86.55 700.54 86.49
  Q 706.69 86.21 716.25 86.01
  Q 718.77 85.96 722.24 86.80
  A 1.29 1.28 6.1 0 1 723.23 88.02
  L 723.34 92.62
  A 0.75 0.75 0.0 0 1 722.76 93.36
  Q 720.21 93.93 719.02 93.98
  Q 710.98 94.31 699.25 93.83
  A 2.29 2.28 0.5 0 0 696.88 96.16
  L 697.40 118.83
  A 2.26 2.25 89.4 0 1 695.15 121.14
  L 691.24 121.14
  A 1.79 1.79 0.0 0 1 689.45 119.35
  Z"
/>
<rect fill="#d0d8e8" x="-4.19" y="-31.69" transform="translate(749.09,89.51) rotate(-0.2)" width="8.38" height="63.38" rx="1.97"/>
<path fill="#d0d8e8" d="
  M 789.53 65.64
  A 0.76 0.76 0.0 0 0 788.79 64.72
  L 771.13 64.72
  A 2.87 2.86 -86.3 0 1 768.29 61.48
  L 768.33 61.16
  A 3.71 3.71 0.0 0 1 772.05 57.73
  Q 790.96 57.81 810.43 57.60
  Q 812.42 57.58 815.71 58.20
  A 1.90 1.90 0.0 0 1 817.26 60.07
  L 817.26 62.19
  A 2.68 2.67 -0.0 0 1 814.58 64.86
  L 799.18 64.86
  A 1.82 1.81 -88.0 0 0 797.37 66.55
  Q 796.97 71.90 797.09 74.68
  C 797.61 86.33 797.21 98.15 797.11 109.49
  Q 797.09 111.93 797.87 118.13
  A 2.81 2.81 0.0 0 1 795.08 121.29
  L 791.39 121.29
  A 2.66 2.65 89.8 0 1 788.74 118.65
  L 788.53 70.36
  A 1.54 0.92 64.7 0 1 788.56 70.06
  L 789.53 65.64
  Z"
/>
<path fill="#d0d8e8" d="
  M 488.00 58.64
  C 490.37 57.60 492.93 57.71 495.51 57.69
  C 507.58 57.61 518.99 57.04 525.73 66.49
  Q 527.89 69.52 528.35 72.42
  C 529.29 78.40 527.82 86.66 522.71 90.76
  C 515.46 96.58 506.95 96.92 498.11 96.10
  C 494.62 95.78 494.35 99.82 494.40 102.76
  Q 494.53 110.32 494.90 118.20
  A 3.04 3.04 0.0 0 1 491.56 121.37
  L 489.37 121.15
  A 3.08 3.07 -86.0 0 1 486.61 117.97
  Q 486.74 114.49 486.39 75.26
  Q 486.33 69.37 487.37 59.50
  A 1.06 1.05 -9.3 0 1 488.00 58.64
  Z
  M 494.70 67.83
  L 494.74 86.47
  A 2.89 2.89 0.0 0 0 497.63 89.36
  L 507.77 89.34
  A 12.55 11.13 -0.1 0 0 520.30 78.19
  L 520.30 76.03
  A 12.55 11.13 -0.1 0 0 507.73 64.92
  L 497.59 64.94
  A 2.89 2.89 0.0 0 0 494.70 67.83
  Z"
/>
<path fill="#d0d8e8" d="
  M 573.27 96.24
  Q 575.78 97.84 578.30 102.23
  Q 581.80 108.35 589.23 118.84
  A 1.54 1.53 -18.3 0 1 588.01 121.26
  L 583.11 121.37
  A 4.32 4.31 73.9 0 1 579.30 119.26
  Q 573.34 109.25 567.83 99.19
  C 566.92 97.52 565.12 96.02 562.84 95.92
  Q 557.76 95.69 553.67 96.35
  A 0.73 0.73 0.0 0 0 553.06 97.08
  L 553.58 119.65
  A 1.73 1.72 -0.6 0 1 551.85 121.41
  L 547.58 121.41
  A 2.25 2.25 0.0 0 1 545.33 119.16
  L 545.33 59.31
  A 1.24 1.23 87.5 0 1 546.45 58.08
  Q 558.58 57.02 570.09 58.38
  C 582.29 59.83 590.22 69.64 586.57 82.01
  Q 585.00 87.30 581.81 90.50
  C 579.49 92.83 575.11 93.41 573.17 95.52
  A 0.48 0.47 37.7 0 0 573.27 96.24
  Z
  M 553.49 66.69
  L 553.27 86.97
  A 1.71 1.71 0.0 0 0 554.97 88.70
  L 567.46 88.83
  A 11.81 11.78 -89.4 0 0 579.36 77.15
  L 579.36 77.07
  A 11.81 11.78 -89.4 0 0 567.70 65.13
  L 555.21 65.00
  A 1.71 1.71 0.0 0 0 553.49 66.69
  Z"
/>
<path fill="#d0d8e8" d="
  M 890.43 114.79
  Q 888.04 119.51 886.88 127.35
  A 4.22 4.22 0.0 0 1 883.37 130.90
  L 882.01 131.11
  A 2.39 2.39 0.0 0 1 879.40 127.92
  Q 881.63 121.95 882.29 114.88
  A 3.96 3.95 2.6 0 1 886.23 111.29
  L 888.27 111.29
  A 2.42 2.41 13.4 0 1 890.43 114.79
  Z"
/>
<path fill="#84a8bb" d="
  M 249.21 136.72
  L 256.09 143.03
  Q 247.04 153.00 233.35 167.35
  Q 216.52 185.01 197.67 198.81
  L 188.44 193.90
  Q 212.34 177.15 232.13 155.63
  Q 240.74 146.26 249.21 136.72
  Z"
/>
<path fill="#d0d8e8" d="
  M 624.51 195.32
  A 33.71 33.71 0.0 0 1 590.80 229.03
  A 33.71 33.71 0.0 0 1 557.09 195.32
  A 33.71 33.71 0.0 0 1 590.80 161.61
  A 33.71 33.71 0.0 0 1 624.51 195.32
  Z
  M 589.6901 168.4680
  A 26.74 25.74 -92.1 0 0 564.9473 196.1332
  A 26.74 25.74 -92.1 0 0 591.6499 221.9120
  A 26.74 25.74 -92.1 0 0 616.3927 194.2468
  A 26.74 25.74 -92.1 0 0 589.6901 168.4680
  Z"
/>
<path fill="#d0d8e8" d="
  M 1009.64 174.48
  A 1.31 1.30 51.7 0 1 1008.01 174.28
  C 1002.09 168.21 992.25 165.68 986.39 173.12
  C 984.85 175.07 984.98 176.19 984.77 178.85
  Q 984.43 183.29 989.40 186.34
  Q 994.28 189.34 1001.61 191.94
  C 1009.17 194.62 1017.64 200.10 1017.34 209.17
  Q 1017.10 216.35 1012.82 220.98
  C 1002.64 231.99 985.97 229.68 975.86 219.52
  Q 975.11 218.76 974.58 216.69
  A 1.00 0.99 67.2 0 1 975.02 215.61
  L 979.43 212.87
  A 1.51 1.51 0.0 0 1 981.39 213.19
  Q 981.79 213.61 983.32 215.57
  C 987.64 221.12 997.51 222.38 1004.31 219.06
  C 1009.07 216.72 1009.18 209.01 1007.54 204.95
  C 1006.07 201.32 996.91 198.06 992.19 196.38
  Q 987.24 194.63 983.33 191.72
  Q 974.76 185.35 976.57 175.55
  C 978.67 164.19 990.94 160.22 1000.99 161.94
  C 1004.88 162.61 1008.84 165.19 1012.17 167.43
  Q 1014.56 169.03 1013.22 172.04
  A 0.90 0.89 -4.6 0 1 1012.87 172.45
  L 1009.64 174.48
  Z"
/>
<path fill="#d0d8e8" d="
  M 656.63 162.53
  C 663.63 162.56 670.60 162.42 677.87 162.84
  A 2.46 2.46 0.0 0 1 680.18 165.30
  L 680.18 167.89
  A 1.92 1.91 90.0 0 1 678.27 169.81
  L 661.60 169.81
  A 1.19 1.19 0.0 0 0 660.41 170.99
  L 660.16 219.67
  A 1.66 1.12 -60.6 0 0 660.18 219.92
  Q 660.64 222.65 660.40 225.56
  A 0.86 0.85 86.4 0 1 659.73 226.33
  Q 657.59 226.79 656.34 226.79
  Q 655.10 226.78 652.96 226.30
  A 0.86 0.85 -85.9 0 1 652.30 225.52
  Q 652.08 222.61 652.57 219.89
  A 1.66 1.12 61.1 0 0 652.59 219.64
  L 652.77 170.96
  A 1.19 1.19 0.0 0 0 651.59 169.77
  L 634.92 169.62
  A 1.92 1.91 -89.5 0 1 633.03 167.68
  L 633.05 165.09
  A 2.46 2.46 0.0 0 1 635.38 162.66
  C 642.65 162.30 649.63 162.50 656.63 162.53
  Z"
/>
<path fill="#d0d8e8" d="
  M 539.93 223.86
  C 540.36 228.28 534.60 227.30 532.10 225.75
  A 2.83 2.83 0.0 0 1 531.32 225.02
  C 527.56 219.85 524.38 216.19 521.70 211.82
  C 520.04 209.12 517.57 207.33 516.09 204.78
  C 514.44 201.93 510.57 196.75 507.71 193.35
  Q 504.91 190.04 501.03 184.13
  Q 500.55 183.39 499.71 181.35
  Q 498.77 179.08 497.63 179.05
  A 2.31 2.04 5.8 0 0 495.35 180.68
  Q 495.00 182.41 494.96 184.25
  C 494.79 191.44 495.32 198.11 494.94 205.41
  Q 494.49 213.96 494.95 223.25
  Q 494.98 223.85 494.65 225.84
  A 1.49 1.49 0.0 0 1 493.34 227.07
  Q 490.26 227.40 487.85 226.71
  A 1.20 1.19 -82.7 0 1 486.99 225.59
  C 486.65 208.82 486.20 199.89 486.72 186.13
  Q 486.96 179.71 487.21 165.66
  A 1.97 1.95 -13.3 0 1 488.28 163.95
  Q 492.71 161.69 495.46 165.25
  C 500.53 171.81 505.13 179.46 510.55 185.94
  Q 511.94 187.61 522.03 201.41
  C 523.43 203.33 524.25 205.70 526.44 206.64
  A 2.28 2.24 -4.2 0 1 527.49 207.53
  L 529.18 210.21
  A 1.42 1.41 -60.6 0 0 531.79 209.48
  Q 531.86 205.71 530.77 201.55
  C 530.10 199.02 531.02 194.44 530.93 191.16
  Q 530.92 190.67 531.07 166.63
  A 3.78 3.78 0.0 0 1 534.77 162.87
  L 536.22 162.83
  A 3.40 3.40 0.0 0 1 539.70 166.28
  Q 539.42 183.80 539.69 197.05
  Q 539.81 202.93 539.53 210.46
  Q 539.28 217.06 539.93 223.86
  Z"
/>
<path fill="#d0d8e8" d="
  M 858.77 227.37
  L 852.98 226.79
  A 5.57 5.56 76.8 0 1 848.82 224.21
  L 841.57 212.69
  Q 841.54 212.65 841.51 212.61
  Q 838.54 209.31 837.58 206.04
  A 1.72 1.70 -78.9 0 0 837.03 205.21
  L 832.82 201.77
  A 0.79 0.79 0.0 0 0 831.55 202.20
  Q 830.85 205.25 829.21 207.46
  Q 823.66 214.93 820.24 221.23
  Q 819.83 221.99 817.29 225.67
  A 2.49 2.44 -79.2 0 1 815.83 226.68
  Q 812.01 227.61 808.24 226.67
  A 0.66 0.66 0.0 0 1 807.76 225.89
  Q 808.19 224.02 809.18 222.68
  Q 817.23 211.71 826.50 198.26
  Q 827.79 196.39 828.36 194.76
  A 1.38 1.35 36.8 0 0 828.16 193.49
  Q 819.07 181.31 809.49 166.28
  Q 808.80 165.21 808.72 164.97
  A 1.18 1.17 -12.9 0 1 809.69 163.43
  C 811.61 163.19 815.91 162.79 817.69 164.78
  C 820.71 168.18 824.27 175.24 828.61 180.54
  Q 830.78 183.20 831.30 187.03
  A 0.92 0.91 -22.1 0 0 832.75 187.64
  C 835.32 185.77 836.99 183.94 838.94 180.74
  Q 843.82 172.74 848.93 165.48
  A 3.20 2.68 -7.9 0 1 849.43 164.93
  Q 853.58 161.33 859.17 163.99
  A 0.59 0.58 30.4 0 1 859.40 164.86
  L 838.82 193.85
  A 0.70 0.70 0.0 0 0 838.76 194.56
  Q 840.64 198.28 842.63 200.91
  Q 845.81 205.10 846.03 205.46
  Q 848.25 209.02 859.96 225.29
  A 1.32 1.31 74.9 0 1 858.77 227.37
  Z"
/>
<path fill="#d0d8e8" d="
  M 732.99 202.01
  Q 732.30 204.87 732.38 208.76
  Q 732.56 217.55 732.96 224.79
  A 2.18 2.18 0.0 0 1 730.78 227.09
  L 726.67 227.09
  A 2.40 2.40 0.0 0 1 724.27 224.68
  L 724.55 164.78
  A 0.64 0.61 -20.4 0 1 724.78 164.30
  Q 726.17 163.10 727.59 163.11
  Q 734.14 163.15 745.73 163.26
  C 753.41 163.33 761.61 167.53 764.39 175.42
  Q 769.04 188.60 758.66 197.32
  Q 753.01 202.06 745.34 201.97
  Q 735.19 201.86 733.65 201.58
  A 0.58 0.57 -77.7 0 0 732.99 202.01
  Z
  M 732.70 170.94
  L 732.30 194.05
  A 1.00 1.00 0.0 0 0 733.28 195.07
  L 744.22 195.26
  A 12.80 11.34 1.0 0 0 757.22 184.15
  L 757.26 181.71
  A 12.80 11.34 1.0 0 0 744.66 170.14
  L 733.72 169.95
  A 1.00 1.00 0.0 0 0 732.70 170.94
  Z"
/>
<path fill="#d0d8e8" d="
  M 788.60 227.33
  L 784.25 226.90
  A 1.72 1.72 0.0 0 1 782.70 225.18
  L 782.70 165.17
  A 1.72 1.72 0.0 0 1 784.38 163.45
  L 788.73 163.35
  A 1.72 1.72 0.0 0 1 790.49 165.07
  L 790.49 225.62
  A 1.72 1.72 0.0 0 1 788.60 227.33
  Z"
/>
<path fill="#d0d8e8" d="
  M 883.13 219.26
  Q 887.40 220.26 893.28 220.04
  Q 899.29 219.81 908.94 219.61
  A 3.19 3.18 88.7 0 1 912.19 222.73
  L 912.24 224.60
  A 2.69 2.68 -88.8 0 1 909.39 227.34
  Q 892.97 226.35 876.19 227.34
  A 0.83 0.82 -1.6 0 1 875.31 226.52
  L 875.31 164.56
  A 1.00 1.00 0.0 0 1 876.19 163.57
  Q 880.09 163.10 880.75 163.11
  Q 894.90 163.31 907.92 163.24
  A 4.21 4.21 0.0 0 1 912.11 166.84
  L 912.12 166.91
  A 3.10 3.10 0.0 0 1 909.07 170.46
  L 882.23 170.57
  A 0.94 0.94 0.0 0 0 881.33 171.76
  L 882.03 174.31
  A 0.94 0.81 40.6 0 1 882.07 174.57
  L 882.43 190.02
  A 0.72 0.72 0.0 0 0 883.01 190.71
  Q 886.52 191.44 886.85 191.44
  Q 903.90 191.42 905.38 191.44
  A 3.62 3.61 -4.4 0 1 908.90 194.45
  L 909.17 196.06
  A 2.24 2.24 0.0 0 1 906.96 198.67
  Q 905.23 198.67 887.53 198.63
  Q 884.33 198.62 882.67 199.26
  A 0.85 0.85 0.0 0 0 882.13 200.08
  L 882.55 218.55
  A 0.75 0.74 6.0 0 0 883.13 219.26
  Z"
/>
<path fill="#d0d8e8" d="
  M 931.50 226.57
  L 931.50 165.29
  A 0.88 0.87 75.6 0 1 931.95 164.52
  Q 934.84 162.86 937.44 163.33
  A 1.92 1.92 0.0 0 1 939.01 165.44
  C 938.66 168.47 938.38 171.73 938.54 174.20
  Q 939.70 191.95 938.70 211.51
  Q 938.48 215.71 939.03 218.33
  A 2.82 2.82 0.0 0 0 941.86 220.57
  L 961.00 220.14
  A 3.34 3.34 0.0 0 1 964.42 223.40
  L 964.43 223.97
  A 2.67 2.67 0.0 0 1 961.76 226.71
  L 931.65 226.71
  A 0.15 0.14 0.0 0 1 931.50 226.57
  Z"
/>
<path fill="#2397ff" d="
  M 188.44 193.90
  L 197.67 198.81
  Q 194.50 201.19 191.31 203.29
  C 180.28 210.58 168.48 217.46 156.21 222.42
  Q 132.69 231.92 108.55 235.14
  C 89.17 237.72 68.67 237.20 47.75 236.74
  Q 32.87 236.41 30.43 236.36
  A 4.68 4.67 -89.4 0 1 25.86 231.69
  L 25.86 231.46
  A 4.62 4.61 89.2 0 1 30.35 226.83
  Q 41.04 226.56 58.60 227.17
  C 69.82 227.57 84.20 226.91 91.75 226.55
  Q 144.74 224.03 188.44 193.90
  Z"
/>
</svg>
